<?xml version="1.0" encoding="UTF-8"?>
<svg width="66px" height="87px" viewBox="0 0 66 87" version="1.1" xmlns="http://www.w3.org/2000/svg" xmlns:xlink="http://www.w3.org/1999/xlink">
    <!-- Generator: Sketch 52.5 (67469) - http://www.bohemiancoding.com/sketch -->
    <title>QA</title>
    <desc>Created with Sketch.</desc>
    <g id="Page-1" stroke="none" stroke-width="1" fill="none" fill-rule="evenodd">
        <g id="QA" transform="translate(1.234375, 0.956380)" stroke="#666666" stroke-width="2.54957507">
            <g id="Icon-QA">
                <path d="M52.4442989,68.9211707 C58.9265935,70.9693369 63.474398,75.7662402 63.474398,81.3561465 L63.474398,86.0172704" id="Stroke-189"></path>
                <path d="M0.909419263,86.0172704 L0.909419263,81.3561465 C0.909419263,76.0792341 4.96196884,71.5099048 10.8699717,69.2902613" id="Stroke-190"></path>
                <path d="M48.036243,33.1321921 L48.0360836,39.6362193 C48.0698654,47.4279202 42.7329674,63.76289 32.1930241,64.1243311 C21.6460694,63.7635275 16.3174575,47.4266453 16.3467776,39.6362193 L16.3466573,33.1321921" id="Stroke-191"></path>
                <path d="M32.1822521,20.0909897 C32.0197167,18.6643492 30.4632011,16.1476483 27.3444334,15.8697148 C23.8712748,15.5484338 20.695779,17.5264792 18.8084561,22.91431 L8.86447592,63.8024127" id="Stroke-192"></path>
                <path d="M32.2002266,20.0922009 C32.3640368,18.664923 33.9218272,16.1482221 37.0393201,15.8702885 C40.511204,15.5483701 43.6879745,17.5264154 45.5759348,22.9148837 L55.5192776,63.8023489" id="Stroke-193"></path>
                <path d="M55.5659348,22.3924196 L55.5659348,61.9157157 C55.5659348,69.3682867 49.5247167,75.4107912 42.0716714,75.4107912 L39.9567989,75.4107912" id="Stroke-194"></path>
                <path d="M24.426381,75.4110462 L22.3121459,75.4110462 C14.8591006,75.4110462 8.81851983,69.3685417 8.81851983,61.9159707 L8.81851983,22.3926746" id="Stroke-195"></path>
                <path d="M39.9566076,61.20979 L39.9566076,75.7350045 C39.9566076,80.0244879 36.4815368,83.5005695 32.1925142,83.5005695 C27.9041289,83.5005695 24.4265085,80.0244879 24.4265085,75.7350045 L24.4265085,61.20979" id="Stroke-196"></path>
                <path d="M27.8249646,50.1681154 C27.807755,50.3236562 27.7962819,50.4817468 27.7962819,50.6411124 C27.7962819,52.9958979 29.7040014,54.9025474 32.0578966,54.9025474 L32.6245397,54.9025474 C34.9790722,54.9025474 36.8880666,52.9958979 36.8880666,50.6411124 C36.8880666,50.4817468 36.8759561,50.3236562 36.8600212,50.1681154 L27.8249646,50.1681154 Z" id="Stroke-197"></path>
                <polyline id="Stroke-198" points="34.1771034 30.9480553 39.4330524 42.5428559 32.7385057 42.5428559"></polyline>
                <path d="M8.83203258,23.6380208 C8.83203258,11.0787399 19.2948513,0.897193051 32.1995255,0.897193051 C45.1048371,0.897193051 55.5670184,11.0787399 55.5670184,23.6380208" id="Stroke-199"></path>
                <path d="M39.1334773,38.5361508 C37.3647096,38.5361508 35.9254745,37.0973985 35.9254745,35.3278033 L35.9254745,30.2019695 C35.9254745,28.4330118 37.3647096,26.9936221 39.1334773,26.9936221 L49.2916218,26.9936221 C51.0591147,26.9936221 52.500262,28.4330118 52.500262,30.2019695 L52.500262,35.3278033 C52.500262,37.0973985 51.0591147,38.5361508 49.2916218,38.5361508 L39.1334773,38.5361508 Z" id="Stroke-200"></path>
                <path d="M16.1444051,38.5361508 C14.3769122,38.5361508 12.9370397,37.0973985 12.9370397,35.3278033 L12.9370397,30.2019695 C12.9370397,28.4330118 14.3769122,26.9936221 16.1444051,26.9936221 L26.3025496,26.9936221 C28.0706799,26.9936221 29.5111898,28.4330118 29.5111898,30.2019695 L29.5111898,35.3278033 C29.5111898,37.0973985 28.0706799,38.5361508 26.3025496,38.5361508 L16.1444051,38.5361508 Z" id="Stroke-201"></path>
                <path d="M29.5109986,30.2021607 L35.9250921,30.2021607" id="Stroke-202"></path>
            </g>
        </g>
    </g>
</svg>